<svg width="800" height="600" xmlns="http://www.w3.org/2000/svg">

 <g>
  <title>Layer 1</title>
  <g transform="rotate(50.7615 400 300)" stroke="null">
   <g stroke="null">
    <g stroke="null">
     <g stroke="null">
      <path stroke="null" d="m400,470.66651c-105.28,0 -170.667,16.363 -170.667,42.667c0,2.219 0.64,4.267 1.472,6.272c0.299,0.683 0.619,1.365 1.003,2.027c0.811,1.408 1.877,2.731 3.051,4.011c0.939,1.003 1.984,1.984 3.157,2.923c1.344,1.109 2.752,2.197 4.373,3.2c0.939,0.597 2.005,1.173 3.051,1.771c2.475,1.344 5.056,2.667 7.957,3.861c0.064,0.021 0.128,0.064 0.192,0.085c37.76,15.317 108.821,17.941 136.427,18.389c3.328,0.064 6.592,0.128 9.984,0.128c3.413,0 6.656,-0.064 9.963,-0.107c27.605,-0.448 98.667,-3.072 136.427,-18.389c0.064,-0.021 0.128,-0.064 0.213,-0.085c2.923,-1.195 5.483,-2.496 7.957,-3.861c1.045,-0.576 2.091,-1.173 3.051,-1.771c1.621,-1.024 3.029,-2.112 4.373,-3.2c1.173,-0.96 2.219,-1.941 3.157,-2.923c1.195,-1.28 2.261,-2.624 3.051,-4.011c0.384,-0.661 0.704,-1.344 1.003,-2.027c0.853,-2.027 1.472,-4.075 1.472,-6.293c0,-26.305 -65.387,-42.667 -170.667,-42.667z"/>
      <path stroke="null" d="m400,129.33251c105.28,0 170.667,-16.363 170.667,-42.667c0,-1.621 -0.405,-3.115 -1.067,-4.48c-9.728,-33.045 -123.947,-37.525 -160.107,-38.101c-3.157,-0.021 -6.25,-0.085 -9.493,-0.085s-6.336,0.064 -9.515,0.085c-36.16,0.576 -150.378,5.035 -160.106,38.102c-0.64,1.365 -1.045,2.859 -1.045,4.48c-0.001,26.304 65.386,42.666 170.666,42.666z"/>
      <path stroke="null" d="m229.333,121.88751l0,356.224c28.501,-19.093 85.44,-28.779 170.667,-28.779s142.187,9.685 170.667,28.779l0,-356.224c-28.48,19.093 -85.44,28.779 -170.667,28.779s-142.165,-9.686 -170.667,-28.779z"/>
     </g>
    </g>
   </g>
  </g>
 </g>
</svg>