<svg width="800" height="1200" xmlns="http://www.w3.org/2000/svg" style="vector-effect: non-scaling-stroke;" stroke="null">
 <g stroke="null" id="Layer_1">
  <title stroke="null">Layer 1</title>
  <g transform="rotate(28.412 360.201 734.127)" stroke="null">
   <metadata stroke="null">Created by potrace 1.15, written by Peter Selinger 2001-2017</metadata>
   <g fill="#000000" transform="translate(0 1280) scale(0.1 -0.1)">
    <path stroke="null" d="m3431.72654,10456.90061c-83.01135,-4.69293 -245.21115,-27.37542 -335.86828,-46.14713c-755.84017,-154.86664 -1342.92701,-636.67395 -1554.27827,-1274.13005c-28.39862,-85.25487 -52.42822,-189.28144 -68.81204,-295.65449l-12.56093,-79.77978l0,-3304.60373l0,-3304.60373l12.56093,-79.77978c16.38382,-106.37304 40.41342,-210.39962 68.81204,-295.65449c211.35126,-637.4561 798.4381,-1119.26342 1554.27827,-1274.13005c181.86039,-37.54343 281.80168,-46.92928 505.16775,-46.92928c223.36606,0 323.30736,9.38586 505.16775,46.92928c755.84017,154.86664 1342.92701,636.67395 1554.27827,1274.13005c27.30636,82.9084 51.88209,186.15283 68.81204,291.74371l12.56093,75.86901l1.63838,3238.12058c1.09225,2219.75512 -0.54613,3267.06031 -4.36902,3330.41484c-20.20671,326.15852 -115.77899,596.0019 -308.01579,869.75606c-130.52442,185.37067 -262.68723,318.33698 -451.64727,453.64974c-431.44056,307.38681 -977.02173,455.99621 -1547.72475,420.79924z"/>
   </g>
  </g>
 </g>

</svg>